<svg xmlns="http://www.w3.org/2000/svg" viewBox="0 0 1440 900" width="1440" height="900">
  <defs>
    <linearGradient id="g" x1="0%" y1="0%" x2="100%" y2="100%" gradientTransform="rotate(120)">
      <stop offset="0%" stop-color="#3f2a10"/>
      <stop offset="100%" stop-color="#1a1206"/>
    </linearGradient>
    <pattern id="grid" width="40" height="40" patternUnits="userSpaceOnUse">
      <path d="M40 0H0V40" fill="none" stroke="rgba(255,255,255,0.06)" stroke-width="1"/>
    </pattern>
  </defs>
  <rect width="1440" height="900" fill="url(#g)"/>
  <rect width="1440" height="900" fill="url(#grid)"/>
  
<g opacity="0.9">
  <circle cx="1400" cy="220" r="160" fill="#f59e0b" opacity="0.18"/>
  <circle cx="200" cy="700" r="220" fill="#d97706" opacity="0.12"/>
</g>
<!-- Distant hills -->
<path d="M0 620 Q 360 520 720 600 T 1440 560 V900 H0 Z" fill="#2a1b0c" opacity="0.7"/>
<!-- Main academic building silhouette -->
<g fill="#160f06">
  <rect x="480" y="430" width="480" height="290" rx="6"/>
  <polygon points="480,430 720,300 960,430"/>
  <rect x="700" y="330" width="40" height="90"/>
  <rect x="690" y="300" width="60" height="40" rx="4"/>
  <rect x="520" y="480" width="46" height="70" fill="#f59e0b" opacity="0.55"/>
  <rect x="590" y="480" width="46" height="70" fill="#f59e0b" opacity="0.35"/>
  <rect x="660" y="480" width="46" height="70" fill="#f59e0b" opacity="0.5"/>
  <rect x="754" y="480" width="46" height="70" fill="#f59e0b" opacity="0.3"/>
  <rect x="824" y="480" width="46" height="70" fill="#f59e0b" opacity="0.55"/>
  <rect x="894" y="480" width="46" height="70" fill="#f59e0b" opacity="0.4"/>
  <rect x="520" y="580" width="46" height="70" fill="#f59e0b" opacity="0.3"/>
  <rect x="590" y="580" width="46" height="70" fill="#f59e0b" opacity="0.55"/>
  <rect x="660" y="580" width="46" height="70" fill="#f59e0b" opacity="0.35"/>
  <rect x="754" y="580" width="46" height="70" fill="#f59e0b" opacity="0.5"/>
  <rect x="824" y="580" width="46" height="70" fill="#f59e0b" opacity="0.3"/>
  <rect x="894" y="580" width="46" height="70" fill="#f59e0b" opacity="0.45"/>
</g>
<!-- Side wings -->
<g fill="#1d1408">
  <rect x="220" y="560" width="260" height="160"/>
  <rect x="960" y="560" width="280" height="160"/>
</g>
<!-- Trees -->
<g fill="#12290f" opacity="0.8">
  <circle cx="150" cy="700" r="46"/>
  <circle cx="1300" cy="710" r="60"/>
  <circle cx="1370" cy="690" r="40"/>
</g>
<path d="M0 900 V740 Q360 700 720 740 T1440 730 V900Z" fill="#0d0904"/>

</svg>